<?xml version="1.0" standalone="no"?>
<!DOCTYPE svg PUBLIC "-//W3C//DTD SVG 20010904//EN"
 "http://www.w3.org/TR/2001/REC-SVG-20010904/DTD/svg10.dtd">
<svg version="1.0" xmlns="http://www.w3.org/2000/svg"
 width="201.000000pt" height="170.000000pt" viewBox="0 0 200 100"
 preserveAspectRatio="xMidYMid meet">

<g transform="translate(0.000000,170.000000) scale(0.100000,-0.100000)"
fill="#7c2422" stroke="none">
<path d="M208 1163 c-16 -4 -18 -21 -18 -184 0 -179 0 -179 23 -180 12 0 74
-6 137 -12 l115 -12 47 190 c26 105 48 193 48 198 0 7 -322 8 -352 0z"/>
<path d="M774 1148 c3 -13 17 -77 31 -143 15 -66 28 -125 30 -132 3 -8 28 -1
82 22 l77 34 18 93 c10 51 20 105 22 121 l6 27 -136 0 -136 0 6 -22z"/>
<path d="M1160 1144 c-1 -16 -7 -57 -14 -91 l-13 -62 36 16 c20 8 44 17 53 20
15 4 13 13 -19 72 -45 82 -43 80 -43 45z"/>
<path d="M1306 1121 c24 -42 31 -48 48 -41 36 14 191 82 195 86 2 2 -57 4
-133 4 l-137 0 27 -49z"/>
<path d="M1823 1160 c-13 -5 -23 -13 -23 -17 0 -4 27 -89 60 -188 l60 -180 0
198 0 197 -37 -1 c-21 0 -48 -4 -60 -9z"/>
<path d="M1537 1028 c-132 -59 -137 -62 -124 -82 10 -16 156 -271 162 -283 1
-3 260 -30 263 -28 3 3 -132 386 -151 427 l-12 27 -138 -61z"/>
<path d="M623 922 c-46 -184 -48 -181 49 -138 l55 24 -29 129 c-15 70 -30 132
-31 138 -2 5 -22 -64 -44 -153z"/>
<path d="M1200 885 l-95 -44 -14 -61 c-7 -34 -10 -64 -7 -67 6 -6 339 -42 344
-37 4 2 -128 255 -131 253 -1 0 -45 -20 -97 -44z"/>
<path d="M915 755 c-28 -13 -43 -24 -34 -24 9 -1 30 -4 46 -7 27 -5 31 -3 37
21 4 15 5 29 4 31 -2 2 -26 -8 -53 -21z"/>
<path d="M190 631 c0 -28 2 -51 4 -51 10 0 172 72 180 81 6 5 -1 9 -20 9 -16
0 -59 3 -96 7 l-68 6 0 -52z"/>
<path d="M594 615 c-45 -20 -52 -27 -61 -64 l-11 -41 135 0 135 0 -6 26 c-4
15 -10 40 -13 56 -7 33 -9 34 -78 41 -38 4 -62 0 -101 -18z"/>
<path d="M904 563 c9 -41 11 -44 17 -23 13 47 10 70 -10 70 -17 0 -17 -4 -7
-47z"/>
<path d="M1056 578 c-3 -7 -6 -23 -9 -35 l-5 -23 234 0 c154 0 234 4 234 10 0
16 -9 18 -230 40 -243 24 -220 23 -224 8z"/>
<path d="M1655 520 c3 -6 43 -9 88 -9 78 2 79 2 32 9 -73 12 -127 12 -120 0z"/>
</g>
</svg>
